<svg fill="none" height="106" viewBox="0 0 300 106" width="300" xmlns="http://www.w3.org/2000/svg"><path d="m.824219 100.32v-57.8122l39.809381-39.74608 18.0951 18.06638v-18.06638h1.3572 12.6666 1.3571v33.42288l6.3333 6.3232v57.8122h-28.1942-5.2818v-32.5589c3.2647-2.0863 5.4285-5.7393 5.4285-9.8968 0-6.4856-5.266-11.7432-11.7618-11.7432-6.4959 0-11.7619 5.2576-11.7619 11.7432 0 4.1575 2.1638 7.8105 5.4286 9.8968v32.5589h-5.2819z" fill="#f4440d"/><g fill="#000"><path d="m119.596 54.6676c-.181 0-.339-.0677-.475-.2031-.09-.1353-.136-.3159-.136-.5415v-42.8503c0-.2257.046-.4062.136-.5416.136-.1354.294-.2031.475-.2031h8.204c4.203 0 7.277 1.1734 9.221 3.5201 1.988 2.3016 2.983 5.8668 2.983 10.6957 0 4.6032-1.017 8.1233-3.051 10.5603-2.034 2.4369-4.972 3.6554-8.814 3.6554h-2.102v15.1635c0 .2256-.068.4062-.204.5415-.09.1354-.226.2031-.406.2031zm8.204-22.4067c1.762 0 3.051-.6092 3.864-1.8277.859-1.2185 1.289-3.1365 1.289-5.754 0-2.8432-.385-4.874-1.153-6.0925-.769-1.2185-2.034-1.8277-3.797-1.8277h-1.966v15.5019z"/><path d="m147.055 54.6676c-.181 0-.339-.0677-.474-.2031-.091-.1353-.136-.3159-.136-.5415v-42.8503c0-.2257.045-.4062.136-.5416.135-.1354.293-.2031.474-.2031h9.018c4.249 0 7.345 1.038 9.289 3.114 1.989 2.0308 2.983 5.2124 2.983 9.5448 0 6.3633-1.74 10.4023-5.221 12.1173v.0676l6.848 18.5482c.045.0903.068.2257.068.4062 0 .361-.181.5415-.542.5415h-6.306c-.362 0-.61-.1805-.746-.5415l-6.034-17.6005h-2.916v17.3974c0 .2256-.067.4062-.203.5415-.09.1354-.226.2031-.407.2031zm9.018-24.2344c1.853 0 3.187-.5642 4-1.6924.814-1.1282 1.221-2.8883 1.221-5.2801 0-2.3919-.43-4.0842-1.289-5.0771-.813-1.0379-2.124-1.5569-3.932-1.5569h-2.577v13.6065z"/><path d="m176.568 54.6676c-.181 0-.339-.0677-.475-.2031-.09-.1353-.136-.3159-.136-.5415v-42.8503c0-.2257.046-.4062.136-.5416.136-.1354.294-.2031.475-.2031h5.831c.18 0 .316.0677.406.2031.136.1354.204.3159.204.5416v42.8503c0 .2256-.068.4062-.204.5415-.09.1354-.226.2031-.406.2031z"/><path d="m197.683 54.6676c-.316 0-.52-.2031-.61-.6092l-8.543-42.8503v-.2708c0-.4062.158-.6093.474-.6093h6.374c.361 0 .587.1806.678.5416l4.339 26.8068c.497 2.8883.927 6.115 1.288 9.6803h.136c.316-2.9786.768-6.2053 1.356-9.6803l4.271-26.7391c.091-.4062.317-.6093.679-.6093h6.305c.497 0 .678.2708.542.8124l-8.475 42.918c-.045.4061-.248.6092-.61.6092z"/><path d="m242.495 54.1261c0 .361-.181.5415-.542.5415h-6.374c-.361 0-.587-.1805-.678-.5415l-1.491-9.1387h-8.882l-1.56 9.071c-.045.4061-.271.6092-.678.6092h-6.237c-.407 0-.565-.2708-.475-.8123l8.814-42.918c.136-.4062.407-.6093.814-.6093h7.594c.452 0 .7.2031.745.6093l8.882 42.8503zm-10.102-15.2312-1.966-11.8464c-.588-3.3847-1.063-6.4987-1.424-9.3418h-.136c-.497 3.9714-.949 7.0853-1.356 9.3418l-1.966 11.8464z"/><path d="m258.41 55.0738c-8.137 0-12.205-4.8514-12.205-14.5542v-16.0435c0-4.8289 1.04-8.4618 3.119-10.8988 2.079-2.4369 5.108-3.65542 9.086-3.65542 3.751 0 6.667 1.12822 8.746 3.38472 2.079 2.2113 3.119 5.2575 3.119 9.1387 0 .9477-.068 1.8954-.204 2.8431-.09.4964-.293.7447-.61.7447h-5.831c-.497 0-.7-.2708-.61-.8124.045-.4513.068-1.1056.068-1.9631 0-4.5581-1.56-6.8371-4.678-6.8371-1.763 0-3.074.6544-3.933 1.9631-.814 1.3088-1.22 3.4299-1.22 6.3633v15.4342c0 2.9785.406 5.1222 1.22 6.4309.859 1.3088 2.17 1.9632 3.933 1.9632 3.164 0 4.746-2.3016 4.746-6.9048 0-.8124-.023-1.4442-.068-1.8955 0-.5415.203-.8123.61-.8123h5.695c.452 0 .701.2708.746.8123.045.4513.068 1.1283.068 2.0309 0 4.197-1.017 7.4689-3.051 9.8156-1.989 2.3016-4.904 3.4524-8.746 3.4524z"/><path d="m283.914 54.6676c-.181 0-.339-.0677-.475-.2031-.09-.1353-.136-.3159-.136-.5415v-14.4865l-9.153-28.1607c-.045-.0903-.068-.2257-.068-.4062 0-.361.159-.5416.475-.5416h6.577c.407 0 .633.1806.678.5416l3.186 13.0649c.272 1.0831.452 1.8955.543 2.437.226.9477.655 2.798 1.288 5.5509h.068c.316-1.5795.949-4.2647 1.898-8.0556l3.187-12.9972c.045-.361.249-.5416.61-.5416h6.441c.226 0 .385.0903.475.2708s.09.4062 0 .677l-9.153 28.093v14.5542c0 .2256-.045.4062-.136.5415-.09.1354-.226.2031-.407.2031z"/><path d="m131.834 100.419c0 .212-.106.318-.318.318h-3.742c-.212 0-.345-.106-.398-.318l-.876-5.3657h-5.215l-.916 5.3257c-.026.239-.159.358-.398.358h-3.662c-.239 0-.332-.159-.279-.477l5.175-25.199c.08-.2385.239-.3577.478-.3577h4.459c.265 0 .411.1192.438.3577l5.215 25.159zm-5.931-8.9429-1.155-6.9555c-.345-1.9873-.623-3.8157-.836-5.485h-.079c-.292 2.3318-.558 4.1601-.796 5.485l-1.155 6.9555z"/><path d="m141.178 100.975c-4.777 0-7.165-2.848-7.165-8.545v-9.4198c0-2.8352.61-4.9683 1.831-6.3991 1.221-1.4309 2.999-2.1463 5.334-2.1463 2.203 0 3.915.6624 5.136 1.9873 1.221 1.2984 1.831 3.0869 1.831 5.3657 0 .5565-.04 1.1129-.119 1.6694-.053.2914-.173.4372-.359.4372h-3.423c-.292 0-.412-.159-.359-.477.027-.265.04-.6492.04-1.1526 0-2.6763-.915-4.0144-2.747-4.0144-1.035 0-1.804.3842-2.309 1.1527-.477.7684-.716 2.0138-.716 3.7361v9.0621c0 1.7488.239 3.0075.716 3.7759.505.7684 1.274 1.1526 2.309 1.1526 1.858 0 2.787-1.3513 2.787-4.0541 0-.4769-.013-.8479-.04-1.1129 0-.3179.12-.4769.359-.4769h3.344c.265 0 .411.159.437.4769.027.265.04.6625.04 1.1924 0 2.4643-.597 4.3853-1.791 5.7632-1.168 1.3516-2.88 2.0266-5.136 2.0266z"/><path d="m159.012 100.975c-4.777 0-7.166-2.848-7.166-8.545v-9.4198c0-2.8352.61-4.9683 1.831-6.3991 1.221-1.4309 2.999-2.1463 5.335-2.1463 2.203 0 3.914.6624 5.135 1.9873 1.221 1.2984 1.831 3.0869 1.831 5.3657 0 .5565-.039 1.1129-.119 1.6694-.053.2914-.173.4372-.358.4372h-3.424c-.292 0-.411-.159-.358-.477.026-.265.04-.6492.04-1.1526 0-2.6763-.916-4.0144-2.747-4.0144-1.035 0-1.805.3842-2.309 1.1527-.478.7684-.717 2.0138-.717 3.7361v9.0621c0 1.7488.239 3.0075.717 3.7759.504.7684 1.274 1.1526 2.309 1.1526 1.858 0 2.786-1.3513 2.786-4.0541 0-.4769-.013-.8479-.039-1.1129 0-.3179.119-.4769.358-.4769h3.344c.265 0 .411.159.438.4769.026.265.04.6625.04 1.1924 0 2.4643-.598 4.3853-1.792 5.7632-1.168 1.3516-2.879 2.0266-5.135 2.0266z"/><path d="m170.591 100.737c-.106 0-.199-.04-.278-.119-.08-.08-.12-.186-.12-.318v-25.1595c0-.1325.027-.2385.08-.318.079-.0795.172-.1192.278-.1192h10.431c.238 0 .358.1457.358.4372v2.9014c0 .318-.12.477-.358.477h-6.649v7.194h6.051c.239 0 .359.1458.359.4372v2.7425c0 .2915-.12.4372-.359.4372h-6.051v7.5915h6.649c.238 0 .358.159.358.477v2.9017c0 .291-.12.437-.358.437z"/><path d="m186.053 100.737c-.106 0-.199-.04-.278-.119-.08-.08-.12-.186-.12-.318v-25.1595c0-.2915.133-.4372.398-.4372h3.344c.106 0 .199.0397.279.1192.079.0795.119.1855.119.318v21.7808h6.211c.265 0 .398.159.398.477v2.9017c0 .291-.133.437-.398.437z"/><path d="m200.232 100.737c-.106 0-.199-.04-.279-.119-.079-.08-.119-.186-.119-.318v-25.1595c0-.1325.027-.2385.08-.318.079-.0795.172-.1192.278-.1192h10.43c.239 0 .359.1457.359.4372v2.9014c0 .318-.12.477-.359.477h-6.648v7.194h6.051c.239 0 .359.1458.359.4372v2.7425c0 .2915-.12.4372-.359.4372h-6.051v7.5915h6.648c.239 0 .359.159.359.477v2.9017c0 .291-.12.437-.359.437z"/><path d="m215.654 100.737c-.106 0-.199-.04-.278-.119-.054-.08-.08-.186-.08-.318v-25.1595c0-.1325.026-.2385.08-.318.079-.0795.172-.1192.278-.1192h5.295c2.495 0 4.313.6094 5.454 1.8283 1.167 1.1924 1.751 3.0604 1.751 5.6042 0 3.7361-1.021 6.1076-3.065 7.1145v.0398l4.021 10.8909c.026.053.04.132.04.238 0 .212-.107.318-.319.318h-3.702c-.212 0-.358-.106-.438-.318l-3.543-10.334h-1.712v10.215c0 .132-.04.238-.119.318-.053.079-.133.119-.239.119zm5.295-14.2291c1.088 0 1.871-.3313 2.349-.9937.477-.6624.716-1.6958.716-3.1002 0-1.4043-.252-2.398-.756-2.9809-.478-.6095-1.248-.9142-2.309-.9142h-1.513v7.989z"/><path d="m246.715 100.419c0 .212-.106.318-.318.318h-3.742c-.212 0-.345-.106-.398-.318l-.876-5.3657h-5.215l-.916 5.3257c-.026.239-.159.358-.398.358h-3.662c-.239 0-.332-.159-.279-.477l5.175-25.199c.08-.2385.239-.3577.478-.3577h4.459c.265 0 .411.1192.438.3577l5.215 25.159zm-5.931-8.9429-1.155-6.9555c-.345-1.9873-.623-3.8157-.836-5.485h-.079c-.292 2.3318-.558 4.1601-.796 5.485l-1.155 6.9555z"/><path d="m251.67 100.737c-.238 0-.358-.146-.358-.437v-21.7811h-4.06c-.239 0-.359-.159-.359-.477v-2.9014c0-.2915.12-.4372.359-.4372h12.221c.265 0 .398.1457.398.4372v2.9014c0 .318-.133.477-.398.477h-4.021v21.7811c0 .291-.119.437-.358.437z"/><path d="m269.694 100.975c-2.335 0-4.113-.675-5.334-2.0266-1.221-1.3779-1.832-3.4049-1.832-6.0812v-10.2147c0-2.7292.611-4.7695 1.832-6.1209 1.221-1.3779 2.999-2.0668 5.334-2.0668 2.336 0 4.114.6889 5.335 2.0668 1.22 1.3514 1.831 3.3917 1.831 6.1209v10.2147c0 2.6763-.611 4.7033-1.831 6.0812-1.221 1.3516-2.999 2.0266-5.335 2.0266zm0-3.8152c1.035 0 1.792-.3577 2.269-1.0731.505-.7155.757-1.8548.757-3.4182v-9.8173c0-1.6163-.252-2.7822-.757-3.4976-.477-.7155-1.234-1.0732-2.269-1.0732s-1.805.3577-2.309 1.0732c-.478.7154-.716 1.8813-.716 3.4976v9.8173c0 1.5634.238 2.7027.716 3.4182.504.7154 1.274 1.0731 2.309 1.0731z"/><path d="m281.467 100.737c-.106 0-.199-.04-.279-.119-.053-.08-.079-.186-.079-.318v-25.1595c0-.1325.026-.2385.079-.318.08-.0795.173-.1192.279-.1192h5.295c2.494 0 4.312.6094 5.454 1.8283 1.167 1.1924 1.751 3.0604 1.751 5.6042 0 3.7361-1.022 6.1076-3.065 7.1145v.0398l4.021 10.8909c.026.053.04.132.04.238 0 .212-.107.318-.319.318h-3.702c-.213 0-.359-.106-.438-.318l-3.543-10.334h-1.712v10.215c0 .132-.04.238-.119.318-.053.079-.133.119-.239.119zm5.295-14.2291c1.088 0 1.871-.3313 2.349-.9937.477-.6624.716-1.6958.716-3.1002 0-1.4043-.252-2.398-.756-2.9809-.478-.6095-1.248-.9142-2.309-.9142h-1.513v7.989z"/></g></svg>