<svg fill="none" height="106" viewBox="0 0 547 106" width="547" xmlns="http://www.w3.org/2000/svg" xmlns:xlink="http://www.w3.org/1999/xlink"><clipPath id="a"><path d="m.152344 0h546.848v106h-546.848z"/></clipPath><g clip-path="url(#a)"><g fill="#000"><path d="m12.762 55.4964v17.1333h-12.609656v-51.2586h19.172356c3.8289 0 7.1177.4278 9.8662 1.2836 2.7486.8557 5.0117 2.0345 6.7895 3.5364 1.7407 1.4497 3.0901 3.2698 3.9364 5.3093.8445 2.041 1.2673 4.2456 1.2683 6.6137 0 2.5571-.435 4.9025-1.3048 7.0363-.8481 2.1031-2.2167 3.9847-3.992 5.488-1.7919 1.5248-4.0614 2.7149-6.8085 3.5701-2.747.8552-5.9987 1.2831-9.7551 1.2836zm0-8.9685h6.5658c3.2811 0 5.6434-.7387 7.0869-2.2162 1.4435-1.4776 2.165-3.5417 2.1645-6.1926 0-1.1733-.1866-2.2402-.5599-3.2006-.3575-.9384-.9381-1.7871-1.6974-2.4811-.7608-.6911-1.7182-1.2247-2.8721-1.6006-1.1538-.376-2.5279-.5638-4.122-.5633h-6.5658z"/><path d="m62.5613 35.5859c2.9311 0 5.6044.4341 8.0197 1.3023 2.4153.8681 4.4857 2.1117 6.2112 3.7308 1.7286 1.6187 3.0727 3.5831 4.0323 5.8934s1.4384 4.9075 1.4364 7.7918c0 2.9081-.4788 5.5291-1.4364 7.8628s-2.3017 4.3151-4.0323 5.9443c-1.7295 1.631-3.8 2.8859-6.2112 3.7646-2.4113.8786-5.0845 1.3187-8.0197 1.3201-2.9611 0-5.6536-.4395-8.0775-1.3187-2.4239-.8791-4.5129-2.134-6.2668-3.7646-1.7539-1.6296-3.1097-3.611-4.0673-5.9443-.9576-2.3332-1.4359-4.9546-1.4349-7.8642 0-2.8852.4786-5.4825 1.4357-7.7918s2.3128-4.2738 4.0673-5.8934c1.7529-1.6172 3.8418-2.8608 6.2668-3.7308 2.4249-.8701 5.1172-1.3042 8.0767-1.3023zm0 29.517c2.6588 0 4.6168-.8849 5.8742-2.6547 1.2574-1.7697 1.886-4.4605 1.886-8.0723 0-3.6113-.6281-6.2965-1.8845-8.0558-1.2563-1.7593-3.2149-2.6401-5.8757-2.6425-2.7389 0-4.7424.8797-6.0104 2.6389-1.268 1.7593-1.902 4.4457-1.902 8.0594 0 3.6118.634 6.3035 1.902 8.0752s3.2715 2.6566 6.0104 2.6547z"/><path d="m116.503 44.8044c-.297.3514-.635.6703-1.008.9506-.322.2347-.783.3516-1.378.3516-.545.0073-1.08-.1265-1.549-.3867-.461-.2583-.977-.5453-1.549-.861-.642-.3455-1.316-.6338-2.014-.8609-.771-.2569-1.729-.3856-2.872-.3861-1.418 0-2.643.2461-3.675.7383-1.027.4885-1.906 1.2148-2.5548 2.1109-.6711.9155-1.1687 2.0354-1.4928 3.3599-.3241 1.3244-.4854 2.8194-.4838 4.4849 0 3.4951.7149 6.1806 2.1444 8.0566 1.43 1.8759 3.401 2.8139 5.913 2.8139 1.343 0 2.406-.1583 3.19-.475.707-.2763 1.376-.6306 1.995-1.0554.548-.3869 1.051-.7457 1.51-1.0762s1.038-.4946 1.735-.4922c.921 0 1.617.3169 2.089.9507l3.358 3.9052c-1.193 1.2915-2.449 2.3407-3.768 3.1476-1.263.7839-2.622 1.422-4.047 1.9006-1.348.4501-2.743.7682-4.16.9492-1.348.1723-2.705.2603-4.065.2633-2.324.0073-4.6256-.4229-6.7709-1.2656-2.142-.8379-4.074-2.09-5.6711-3.6757-1.6281-1.6071-2.9215-3.583-3.8801-5.9277-.9586-2.3448-1.4374-5.0181-1.4364-8.02 0-2.6269.4154-5.0838 1.2462-7.3706.8308-2.2869 2.0618-4.268 3.693-5.9436 1.6281-1.6741 3.6427-2.9935 6.0438-3.9583 2.4012-.9648 5.1805-1.4457 8.3375-1.4428 3.034 0 5.695.4575 7.983 1.3725 2.289.915 4.353 2.2514 6.193 4.0092z"/><path d="m147.133 38.8935c.581-.8295 1.369-1.5123 2.294-1.9888.915-.4933 1.951-.7539 3.005-.7563h9.139l-8.135 13.2626c-.621.9853-1.255 1.7827-1.902 2.392-.668.6227-1.47 1.1028-2.351 1.4077 1.268.3999 2.3.9629 3.095 1.689.796.7261 1.505 1.6408 2.126 2.7443l8.096 14.9859h-7.981c-.895.0112-1.79-.0653-2.668-.2281-.709-.1354-1.394-.3661-2.033-.6852-.583-.294-1.112-.6746-1.567-1.1272-.469-.4715-.882-.9905-1.231-1.5476l-4.108-9.1837c-.373-.8208-.915-1.4244-1.624-1.8109-.71-.3864-1.524-.5799-2.443-.5804h-2.91v15.1617h-11.564v-36.4772h11.564v14.4586h2.39c1.044 0 1.821-.1581 2.331-.4743.51-.3161.964-.8499 1.362-1.6014z"/><path d="m183.132 35.5859c2.931 0 5.605.4341 8.021 1.3023 2.416.8681 4.486 2.1117 6.211 3.7308 1.728 1.6187 3.072 3.5831 4.032 5.8934.961 2.3103 1.439 4.9075 1.436 7.7918 0 2.9081-.478 5.5291-1.436 7.8628-.957 2.3337-2.301 4.3151-4.032 5.9443-1.73 1.631-3.8 2.8859-6.211 3.7646-2.411.8786-5.085 1.3182-8.021 1.3187-2.96 0-5.653-.4396-8.077-1.3187-2.425-.8792-4.514-2.1341-6.268-3.7646-1.753-1.6297-3.108-3.6111-4.065-5.9443-.958-2.3333-1.437-4.9542-1.437-7.8628 0-2.8852.479-5.4825 1.437-7.7918.957-2.3093 2.312-4.2738 4.065-5.8934 1.753-1.6172 3.842-2.8608 6.268-3.7308 2.425-.8701 5.118-1.3042 8.077-1.3023zm0 29.517c2.66 0 4.619-.8849 5.875-2.6547 1.256-1.7697 1.884-4.4605 1.884-8.0723 0-3.6113-.628-6.2966-1.884-8.0558-1.257-1.7593-3.215-2.6389-5.875-2.6389-2.736 0-4.74.8796-6.011 2.6389-1.271 1.7592-1.906 4.4445-1.905 8.0558 0 3.6118.635 6.3035 1.906 8.0752s3.274 2.6566 6.01 2.6547z"/><path d="m231.812 56.5176c.373-.9844.771-1.9521 1.193-2.9029.402-.9108.864-1.7973 1.382-2.6547l6.564-12.4841c.548-.9614 1.213-1.5947 1.996-1.8998.751-.2986 1.556-.4541 2.37-.4578h9.698v36.5195h-10.445v-17.2811c0-.8911.044-1.8937.131-3.0077.081-1.068.224-2.131.429-3.1841l-9.439 17.2739c-.696 1.1958-1.778 1.7937-3.244 1.7937h-1.231c-1.466 0-2.548-.5979-3.246-1.7937l-9.51-17.3794c.199 1.0322.355 2.1168.466 3.2538.112 1.1369.168 2.1507.168 3.0413v17.2732h-10.446v-36.5144h9.7c.816.0042 1.622.1658 2.369.4749.782.3181 1.447.9457 1.996 1.8827l6.528 12.4877c.983 1.7988 1.842 3.6556 2.571 5.559z"/></g><g fill="#899fe7"><path d="m291.277 44.8026c-.298.3511-.636.6699-1.009.9507-.323.2344-.782.3516-1.379.3516-.544.0075-1.08-.1263-1.549-.3868-.46-.2583-.977-.5452-1.548-.8609-.642-.3456-1.316-.6338-2.015-.861-.77-.2569-1.727-.3855-2.871-.386-1.417 0-2.642.2461-3.676.7383-1.027.4886-1.906 1.2148-2.554 2.1108-.671.9155-1.169 2.0355-1.492 3.3599-.324 1.3245-.485 2.8192-.483 4.4843 0 3.495.715 6.1805 2.144 8.0565 1.43 1.8759 3.401 2.8139 5.913 2.8139 1.342 0 2.405-.1583 3.189-.4749.707-.2759 1.378-.6302 1.996-1.0554.547-.387 1.05-.7457 1.51-1.0763.46-.3305 1.039-.4945 1.736-.4922.919 0 1.615.3169 2.089.9507l3.357 3.9052c-1.193 1.2915-2.449 2.3407-3.768 3.1476-1.263.7842-2.622 1.4223-4.047 1.9006-1.348.45-2.742.7681-4.16.9492-1.347.1724-2.705.2603-4.065.2633-2.324.0074-4.626-.4229-6.772-1.2656-2.142-.8375-4.074-2.0897-5.671-3.6756-1.627-1.6072-2.921-3.5831-3.88-5.9278s-1.439-5.0178-1.44-8.0192c0-2.627.417-5.0838 1.25-7.3707.833-2.2868 2.065-4.2687 3.695-5.9457 1.628-1.6741 3.643-2.9935 6.044-3.9583s5.18-1.4457 8.336-1.4428c3.034 0 5.695.4575 7.983 1.3725s4.352 2.2514 6.193 4.0092z"/><path d="m299.145 36.1523h16.189c2.487 0 4.651.2229 6.491.6687 1.839.4458 3.363 1.0676 4.571 1.8655 1.205.7964 2.1 1.7408 2.684 2.8333.59 1.1073.891 2.3311.88 3.5701-.004.824-.11 1.6447-.317 2.4452-.22.851-.593 1.6603-1.102 2.3928-.522.7619-1.237 1.4598-2.145 2.0936-.907.6337-2.07 1.1264-3.488 1.478 1.129.2447 2.224.6106 3.264 1.0905.963.4387 1.844 1.02 2.612 1.722.731.6778 1.314 1.4847 1.715 2.3748.41.9026.615 1.9286.617 3.078 0 1.9472-.436 3.606-1.306 4.9764-.857 1.3581-2.038 2.5087-3.45 3.3599-1.43.8672-3.06 1.506-4.888 1.9164-1.839.4118-3.723.6184-5.613.6156h-16.708zm10.967 14.8812h4.887c1.417 0 2.573-.4044 3.469-1.2132.896-.8089 1.344-1.8471 1.344-3.1146-.002-.4535-.078-.9041-.225-1.336-.154-.4527-.422-.8632-.783-1.196-.374-.3525-.872-.6395-1.492-.8609-.621-.2215-1.392-.333-2.313-.3344h-4.887zm0 6.4731v7.9482h5.67c1.442 0 2.586-.3686 3.432-1.1057.845-.7371 1.268-1.7396 1.269-3.0076.002-.4971-.054-.9928-.168-1.478-.107-.4584-.338-.8827-.671-1.2312-.338-.3516-.817-.628-1.438-.8294-.62-.2014-1.429-.3009-2.424-.2985z"/><path d="m354.877 35.5859c2.932 0 5.605.4341 8.021 1.3023 2.416.8681 4.487 2.1117 6.212 3.7308 1.727 1.6187 3.071 3.5831 4.032 5.8934s1.44 4.9075 1.436 7.7918c0 2.9081-.479 5.5291-1.436 7.8628-.958 2.3337-2.302 4.3151-4.032 5.9443-1.731 1.631-3.801 2.8859-6.212 3.7646-2.41.8786-5.084 1.3182-8.021 1.3187-2.96 0-5.652-.4396-8.077-1.3187-2.425-.8792-4.513-2.135-6.266-3.7675-1.753-1.6296-3.108-3.6108-4.066-5.9436-.957-2.3327-1.436-4.953-1.437-7.8606 0-2.8843.479-5.4815 1.437-7.7918.959-2.3103 2.314-4.2747 4.066-5.8934 1.753-1.6172 3.842-2.8608 6.268-3.7308 2.425-.8701 5.117-1.3042 8.075-1.3023zm0 29.517c2.66 0 4.618-.8849 5.874-2.6547 1.256-1.7697 1.885-4.4605 1.886-8.0723 0-3.6113-.629-6.2966-1.886-8.0558-1.257-1.7593-3.215-2.6389-5.874-2.6389-2.736 0-4.738.8796-6.006 2.6389-1.268 1.7592-1.903 4.4445-1.906 8.0558 0 3.6118.636 6.3035 1.906 8.0752 1.271 1.7717 3.273 2.6566 6.006 2.6547z"/><path d="m401.993 31.0801c-2.139.1176-3.973.4764-5.502 1.0762-1.53.5998-2.791 1.4144-3.786 2.4437-1.013 1.0595-1.782 2.3054-2.259 3.6591-.511 1.4068-.815 2.9663-.913 4.6787.644-.7969 1.382-1.5226 2.199-2.1632.877-.6861 1.842-1.2646 2.873-1.722 1.116-.4964 2.285-.8793 3.488-1.1422 1.339-.2903 2.71-.4322 4.085-.4226 2.561 0 4.873.4279 6.938 1.2836 2.02.8253 3.821 2.061 5.276 3.6189 1.454 1.5594 2.574 3.4296 3.357 5.6107.784 2.1811 1.176 4.6093 1.177 7.2845 0 2.7685-.478 5.2558-1.435 7.4618-.958 2.206-2.302 4.0822-4.033 5.6286-1.728 1.5483-3.799 2.7386-6.211 3.5709-2.412.8322-5.088 1.2474-8.026 1.2455-2.958 0-5.657-.4456-8.095-1.3367s-4.533-2.3098-6.284-4.256c-1.753-1.9463-3.108-4.4556-4.066-7.5278-.957-3.0722-1.436-6.8031-1.436-11.1926 0-3.6108.355-7.0069 1.065-10.1882s1.908-5.9847 3.594-8.4102c1.678-2.427 3.904-4.3912 6.678-5.8926 2.773-1.5015 6.224-2.3811 10.351-2.6389l13.691-.8782.634 5.4873c.123 1.1479-.063 2.127-.56 2.9373s-1.381 1.2386-2.651 1.285zm-2.761 34.4051c2.661 0 4.62-.8383 5.876-2.5148 1.255-1.6765 1.884-4.2269 1.884-7.6511 0-3.4234-.628-5.968-1.884-7.634-1.257-1.666-3.215-2.4982-5.876-2.4968-2.761 0-4.775.827-6.042 2.481s-1.903 4.1808-1.906 7.5802c0 3.4481.635 6.0165 1.906 7.7049 1.27 1.6885 3.284 2.532 6.042 2.5306z"/><path d="m442.695 35.5859c2.931 0 5.604.4341 8.02 1.3023 2.416.8681 4.487 2.1117 6.212 3.7308 1.727 1.6187 3.071 3.5831 4.032 5.8934.96 2.3103 1.439 4.9075 1.435 7.7918 0 2.9081-.479 5.5291-1.437 7.8628-.957 2.3337-2.301 4.3151-4.032 5.9443-1.729 1.631-3.799 2.8859-6.211 3.7646-2.412.8786-5.085 1.3182-8.021 1.3187-2.96 0-5.652-.4396-8.077-1.3187-2.425-.8792-4.514-2.1341-6.267-3.7646-1.753-1.6297-3.108-3.6111-4.066-5.9443-.959-2.3333-1.437-4.9542-1.435-7.8628 0-2.8852.478-5.4825 1.436-7.7918s2.313-4.2738 4.067-5.8934c1.752-1.6172 3.841-2.8608 6.266-3.7308 2.425-.8701 5.118-1.3042 8.078-1.3023zm0 29.517c2.66 0 4.618-.8849 5.874-2.6547 1.256-1.7697 1.885-4.4605 1.885-8.0723 0-3.6113-.628-6.2966-1.885-8.0558-1.257-1.7593-3.215-2.6389-5.874-2.6389-2.736 0-4.739.8796-6.011 2.6389-1.271 1.7592-1.902 4.4445-1.895 8.0558 0 3.6118.634 6.3035 1.902 8.0752s3.27 2.6566 6.004 2.6547z"/><path d="m503.684 36.1506v28.6718h7.126v16.6727c0 .937-.304 1.6872-.913 2.2507-.608.5635-1.387.8449-2.336.8445h-7.274v-11.9611h-25.777v9.0094c0 .3708-.063.7393-.187 1.0913-.123.3498-.32.6727-.578.9499-.273.2891-.611.5173-.989.668-.449.1742-.932.2581-1.417.246h-7.347v-19.4572h1.307c.808-.0209 1.61-.139 2.386-.3515.771-.211 1.511-.6506 2.219-1.3188.709-.6682 1.374-1.6415 1.996-2.9201.622-1.2785 1.189-2.9847 1.699-5.1185.51-2.1337.964-4.7724 1.361-7.9159.398-3.1425.721-6.9303.971-11.3634zm-18.315 8.0587c-.449 5.184-1.108 9.469-1.978 12.855-.871 3.386-1.891 6.0768-3.06 8.0723h12.166v-20.9287z"/><path d="m541.7 72.6321c-1.095 0-1.922-.1407-2.482-.4219-.56-.2813-1.026-.8684-1.398-1.7614l-.821-2.0046c-.97.7748-1.902 1.4552-2.797 2.0412-.877.5765-1.808 1.077-2.78 1.4952-.979.4163-2.005.7231-3.059.9141-1.187.2082-2.393.3083-3.6.2991-1.766 0-3.37-.2166-4.812-.65-1.442-.4333-2.667-1.0726-3.675-1.9178-1.023-.8661-1.821-1.9433-2.331-3.1476-.547-1.2551-.821-2.7039-.82-4.3464 0-1.2915.348-2.6162 1.045-3.9741.696-1.358 1.902-2.5951 3.617-3.7115 1.715-1.114 4.028-2.0467 6.938-2.7982 2.91-.7514 6.579-1.1738 11.007-1.267v-1.5476c0-2.1338-.467-3.6759-1.4-4.6263-.932-.9504-2.257-1.4252-3.973-1.4242-1.37 0-2.489.1406-3.358.4219-.803.2548-1.583.5726-2.331.9499-.684.353-1.349.6696-1.996.9499s-1.418.421-2.313.4219c-.796 0-1.467-.1875-2.014-.5625-.534-.3613-.99-.8151-1.343-1.3374l-2.09-3.4123c2.271-1.9082 4.912-3.3833 7.778-4.3436 2.847-.9499 5.901-1.4251 9.162-1.4256 2.337 0 4.444.3588 6.322 1.0762 1.878.7175 3.469 1.7141 4.776 2.9897 1.305 1.2786 2.307 2.797 3.005 4.5553s1.046 3.6816 1.045 5.7699v22.7964zm-13.281-6.6489c1.492 0 2.797-.2463 3.916-.739 1.12-.4927 2.252-1.29 3.397-2.392v-5.0661c-2.314.0923-4.216.2798-5.707.5625-1.49.2826-2.671.6349-3.542 1.0568s-1.474.9023-1.81 1.4414c-.334.5325-.508 1.1406-.504 1.7593 0 1.2436.36 2.1172 1.081 2.6209s1.778.7548 3.172.7533z"/></g></g></svg>